<?xml version="1.0" encoding="utf-8"?>
<!-- Generator: Adobe Illustrator 24.3.0, SVG Export Plug-In . SVG Version: 6.00 Build 0)  -->
<svg version="1.1" id="Layer_1" xmlns="http://www.w3.org/2000/svg" xmlns:xlink="http://www.w3.org/1999/xlink" x="0px" y="0px"
	 viewBox="0 0 897.33 229" style="enable-background:new 0 0 897.33 229;" xml:space="preserve">
<style type="text/css">
	.st0{fill:#E9A922;}
	.st1{fill:#FFFFFF;}
	.st2{fill:none;stroke:#E9A922;stroke-width:1.3;stroke-miterlimit:10;}
	.st3{fill:none;}
</style>
<g>
	<polygon class="st0" points="133.69,145.13 105.55,198.24 160.25,198.24 	"/>
	<g>
		<polygon class="st1" points="84.45,122.59 132.32,22.1 100.5,22.1 18.17,198.24 48.41,198.24 72.38,147.93 118.66,147.93 
			127.75,129.05 124.25,122.59 		"/>
		<polygon class="st1" points="133.69,51.64 118.83,79.95 174.76,198.24 204.29,198.24 		"/>
	</g>
	<line class="st2" x1="243.22" y1="39.87" x2="243.22" y2="206.87"/>
	<g>
		<path class="st1" d="M304.43,150.7h-16.74l38.22-92.93h22.24l37.02,92.93h-16.75l-9.06-23.55h-45.47L304.43,150.7z M336.33,72.69
			l-17.01,41.81h35.09L336.6,72.69H336.33z"/>
		<path class="st1" d="M399.23,96.67h-10.64V85h10.64V65.52h13.65V85h18.21v11.67h-18.21v31.85c0,7.11,3.59,10.66,10.77,10.66
			c2.82,0,4.28-0.78,7.82-2.35l1.15,12.41c-3.5,1.82-7.61,2.73-12.31,2.73c-5.68,0-12.51-1.61-15.89-4.82
			c-3.46-3.22-5.19-8.1-5.19-14.66V96.67z"/>
		<path class="st0" d="M623.99,96.67h-10.64V85h10.64V65.52h13.65V85h18.21v11.67h-18.21v31.85c0,7.11,3.59,10.66,10.77,10.66
			c2.82,0,4.28-0.78,7.82-2.35l1.15,12.41c-3.5,1.82-7.61,2.73-12.31,2.73c-5.68,0-12.51-1.61-15.89-4.82
			c-3.46-3.22-5.19-8.1-5.19-14.66V96.67z"/>
		<path class="st1" d="M460.95,150.7h-14.11V55.47h14.11V150.7z"/>
		<path class="st1" d="M475.96,130.95c0-4.49,1.3-8.34,3.91-11.55c2.61-3.22,5.98-5.61,10.13-7.17c4.06-1.56,10.34-2.35,15.38-2.35
			c6.67,0,11.72,1.72,16.89,2.87v-2.22c0-5.37-0.74-8.39-3.94-11.35c-3.21-2.92-7.48-4.38-12.82-4.38c-3.63,0-6.82,0.49-9.55,1.46
			c-2.78,1.02-5.75,2.69-8.91,5.01l-5.83-9.51c7.56-5.59,16.69-8.38,25.06-8.38c8.72,0,14.51,2.12,19.68,6.35
			c5.13,4.27,8.84,11.53,8.84,20.03v40.94h-12.82v-9.52h-0.38c-5.9,7.32-12.42,10.98-21.86,10.98c-6.54,0-11.84-1.69-15.9-5.08
			C479.74,143.74,475.96,137.6,475.96,130.95z M490.51,130.37c0,3.26,1.17,5.76,3.52,7.5c2.35,1.74,5.61,2.61,9.78,2.61
			c4.65,0,9.05-1.58,13.18-4.73c4.05-3.15,5-6.52,5-10.11v-4.84c-5.94-1.06-10.15-1.59-14.8-1.59c-4.9,0-8.89,1.01-11.97,3.02
			C492.07,124.29,490.51,127,490.51,130.37z"/>
		<path class="st1" d="M603.06,127.8c0.22,1.85,0.23,3.75,0.23,5.51c0,5.63-2.52,10.14-7.57,13.52c-5.09,3.43-11.65,5.14-19.67,5.14
			c-9.39,0-18.37-3.53-26.96-10.6l6.79-8.74c3.68,3.17,7.15,4.62,10.4,6.05c3.25,1.44,6.65,2.16,10.19,2.16
			c7.46,0,13.49-1.63,13.49-7.76c0-3.09-0.4-4.66-3.52-6.44c-5.05-2.31-12.26-4.12-12.26-4.12c-4.95-1.52-9.97-3.19-13.32-5.01
			c-2.31-1.27-4.08-2.52-5.31-3.75c-3.26-3.09-4.02-7.33-4.02-11.56c0-5.59,3.34-10.56,8.29-13.78c4.86-3.17,11.04-4.76,18.54-4.76
			c9.24,0,17.17,3.14,23.77,8.26l-7,8.65c-4.77-3.81-10.35-6.86-16.77-6.86c-4.15,0-7.54,0.76-10.15,2.29c0,0-5.94,3.11-2.74,8.68
			c3.21,5.57,10.3,6.16,16.97,7.01C582.46,111.68,600.03,113.95,603.06,127.8z"/>
		<path class="st0" d="M666.91,118.07c-0.13-6.09,1.18-11.75,3.91-16.98c2.73-5.23,6.56-9.36,11.47-12.41
			c4.91-3.05,10.32-4.53,16.22-4.44c6.41,0,11.96,1.55,16.67,4.63c4.7,3.09,8.25,7.24,10.64,12.44c2.35,5.08,3.53,10.88,3.53,17.39
			c0,1.52-0.04,2.75-0.13,3.68l-49.43-1.56c0.64,6.35,2.99,11.34,7.05,14.98c4.02,3.6,8.97,5.4,14.87,5.4
			c7.74,0,10.2-3.15,16.19-9.46l9.4,7.91c-3.8,4.19-7.91,7.29-12.31,9.3c-4.4,2.01-9.53,3.02-15.38,3.02
			c-9.32,0-17.1-3.15-23.33-9.46C670.03,136.21,666.91,128.06,666.91,118.07z M679.79,112.1h36.81c-0.5-4.76-2.33-8.71-5.48-11.86
			c-3.18-3.12-7.47-4.67-12.87-4.67c-4.93,0-9.09,1.52-12.46,4.57C682.37,103.19,680.38,107.18,679.79,112.1z"/>
		<path class="st0" d="M802.9,139.66c-3.89,4.02-7.93,7.09-12.12,9.2c-4.15,2.07-9.17,3.11-15.07,3.11
			c-6.2,0.08-11.89-1.41-17.08-4.47s-9.25-7.21-12.18-12.44c-2.93-5.23-4.33-10.89-4.2-16.98c0-6.22,1.43-11.89,4.3-17.01
			c2.91-5.21,6.92-9.31,12.05-12.31c5.17-3,10.88-4.51,17.12-4.51c10.39,0,19.27,3.79,26.67,11.36l-9.98,8.66
			c-4.8-5.09-10.38-7.64-16.72-7.64c-5.7,0-10.45,2.04-14.24,6.13c-3.79,4.09-5.68,9.2-5.68,15.33c0,6.24,1.88,11.39,5.63,15.44
			c3.79,4.09,8.56,6.13,14.3,6.13c6.49,0,12.36-2.77,17.62-8.3L802.9,139.66z"/>
		<path class="st0" d="M829.28,150.7h-11.79V55.51h11.79v39.71h0.38c4.7-7.32,10.69-10.98,20.26-10.98c7.52,0,13.48,2.43,17.89,7.3
			c4.36,4.91,6.54,11.32,6.54,19.23v39.93h-13.23v-35.24c0-5.97-1.47-10.62-4.42-13.96c-2.95-3.34-7.16-5.01-12.63-5.01
			c-5.34,0-8.61,1.99-12.12,5.97c-3.5,3.98-2.66,6.38-2.66,12.39V150.7z"/>
	</g>
	<g fill="#FFFFFF">
		<g>
			<path d="M290.97,182.38h1.95l-3.4,17.17h10.48l-0.35,1.73h-12.43L290.97,182.38z"/>
			<path d="M303.3,195.37c0-4.83,3.29-8.4,7.78-8.4c3.72,0,6.12,2.24,6.12,6.02c0,0.59-0.08,1.19-0.19,1.73h-11.84
				c0,0.19,0,0.38,0,0.57c0,2.83,1.6,4.43,4.84,4.43c1.87,0,3.56-0.67,4.6-1.78l0.86,1.38c-1.31,1.32-3.42,2.11-5.61,2.11
				C305.78,201.41,303.3,199.09,303.3,195.37z M315.41,193.29c0.24-3.02-1.63-4.7-4.38-4.7c-2.83,0-4.97,1.86-5.64,4.7H315.41z"/>
			<path d="M327.75,199.69l0.91-1.51c1.07,0.95,2.94,1.57,4.87,1.57c2.7,0,4.17-0.94,4.17-2.54c0-3.21-7.97-1-7.97-5.8
				c0-2.7,2.41-4.43,6.1-4.43c1.79,0,3.69,0.51,4.76,1.32l-0.8,1.54c-1.1-0.84-2.67-1.21-4.12-1.21c-2.59,0-4.06,1.05-4.06,2.59
				c0,3.29,7.97,1.05,7.97,5.78c0,2.81-2.49,4.43-6.23,4.43C331.04,201.41,328.85,200.68,327.75,199.69z"/>
			<path d="M342.72,195.39c0-4.83,3.39-8.42,8.13-8.42c3.9,0,6.39,2.32,6.39,5.99c0,4.86-3.39,8.45-8.13,8.45
				C345.21,201.41,342.72,199.04,342.72,195.39z M355.34,193.07c0-2.78-1.68-4.43-4.62-4.43c-3.5,0-6.1,2.81-6.1,6.67
				c0,2.78,1.68,4.4,4.62,4.4C352.75,199.71,355.34,196.93,355.34,193.07z"/>
			<path d="M360.55,195.39c0-4.86,3.39-8.42,8.18-8.42c2.57,0,4.49,0.95,5.53,2.83l-1.6,0.94c-0.8-1.4-2.17-2.11-4.09-2.11
				c-3.53,0-6.12,2.81-6.12,6.67c0,2.78,1.68,4.4,4.68,4.4c1.79,0,3.42-0.7,4.44-2.05l1.36,1.05c-1.26,1.7-3.47,2.7-5.88,2.7
				C363.04,201.41,360.55,199.04,360.55,195.39z"/>
			<path d="M380.01,181.25h1.9l-3.96,20.03h-1.9L380.01,181.25z"/>
			<path d="M384.18,195.37c0-4.83,3.29-8.4,7.78-8.4c3.72,0,6.12,2.24,6.12,6.02c0,0.59-0.08,1.19-0.19,1.73h-11.84
				c0,0.19,0,0.38,0,0.57c0,2.83,1.6,4.43,4.84,4.43c1.87,0,3.56-0.67,4.6-1.78l0.86,1.38c-1.31,1.32-3.42,2.11-5.61,2.11
				C386.67,201.41,384.18,199.09,384.18,195.37z M396.29,193.29c0.24-3.02-1.63-4.7-4.38-4.7c-2.83,0-4.97,1.86-5.64,4.7H396.29z"/>
			<path d="M407.86,195.39c0-4.86,3.37-8.42,7.94-8.42c2.67,0,4.54,1.08,5.35,3.08l1.74-8.8h1.9l-3.96,20.03h-1.82l0.45-2.24
				c-1.34,1.48-3.21,2.38-5.48,2.38C410.38,201.41,407.86,199.15,407.86,195.39z M420.48,193.07c0-2.78-1.68-4.43-4.62-4.43
				c-3.5,0-6.1,2.81-6.1,6.67c0,2.78,1.68,4.4,4.62,4.4C417.89,199.71,420.48,196.93,420.48,193.07z"/>
			<path d="M425.99,195.37c0-4.83,3.29-8.4,7.78-8.4c3.72,0,6.12,2.24,6.12,6.02c0,0.59-0.08,1.19-0.19,1.73h-11.84
				c0,0.19,0,0.38,0,0.57c0,2.83,1.6,4.43,4.84,4.43c1.87,0,3.56-0.67,4.6-1.78l0.86,1.38c-1.31,1.32-3.42,2.11-5.61,2.11
				C428.47,201.41,425.99,199.09,425.99,195.37z M438.1,193.29c0.24-3.02-1.63-4.7-4.38-4.7c-2.83,0-4.97,1.86-5.64,4.7H438.1z"/>
			<path d="M450.5,187.08h1.9l2.91,12.09l7.67-12.09h1.98l-9.04,14.2h-1.95L450.5,187.08z"/>
			<path d="M464.82,195.39c0-4.83,3.39-8.42,8.13-8.42c3.9,0,6.39,2.32,6.39,5.99c0,4.86-3.39,8.45-8.13,8.45
				C467.31,201.41,464.82,199.04,464.82,195.39z M477.44,193.07c0-2.78-1.68-4.43-4.62-4.43c-3.5,0-6.1,2.81-6.1,6.67
				c0,2.78,1.68,4.4,4.62,4.4C474.85,199.71,477.44,196.93,477.44,193.07z"/>
			<path d="M482.33,197.07l1.63-8.37h-2.49l0.29-1.62h2.51l0.62-3.1h1.9l-0.61,3.1h4.28l-0.32,1.62h-4.28l-1.63,8.29
				c-0.35,1.78,0.24,2.78,1.92,2.78c0.78,0,1.52-0.24,2.17-0.73l0.45,1.46c-0.88,0.67-2.06,0.92-3.13,0.92
				C483.19,201.41,481.8,199.77,482.33,197.07z"/>
			<path d="M494.31,187.08h1.82l-0.48,2.59c1.26-1.86,3.1-2.7,5.77-2.7l-0.35,1.86c-0.19,0-0.32-0.03-0.53-0.03
				c-2.99,0-5,1.73-5.69,5.26l-1.42,7.21h-1.9L494.31,187.08z"/>
			<path d="M502.83,195.37c0-4.83,3.29-8.4,7.78-8.4c3.72,0,6.12,2.24,6.12,6.02c0,0.59-0.08,1.19-0.19,1.73H504.7
				c0,0.19,0,0.38,0,0.57c0,2.83,1.6,4.43,4.84,4.43c1.87,0,3.56-0.67,4.6-1.78l0.86,1.38c-1.31,1.32-3.42,2.11-5.61,2.11
				C505.32,201.41,502.83,199.09,502.83,195.37z M514.94,193.29c0.24-3.02-1.63-4.7-4.38-4.7c-2.83,0-4.97,1.86-5.64,4.7H514.94z"/>
			<path d="M529.4,197.07l1.63-8.37h-2.49l0.29-1.62h2.51l0.62-3.1h1.9l-0.61,3.1h4.28l-0.32,1.62h-4.28l-1.63,8.29
				c-0.35,1.78,0.24,2.78,1.92,2.78c0.78,0,1.52-0.24,2.17-0.73l0.45,1.46c-0.88,0.67-2.06,0.92-3.13,0.92
				C530.26,201.41,528.87,199.77,529.4,197.07z"/>
			<path d="M540.31,187.08h1.82l-0.48,2.59c1.26-1.86,3.1-2.7,5.77-2.7l-0.35,1.86c-0.19,0-0.32-0.03-0.53-0.03
				c-2.99,0-5,1.73-5.69,5.26l-1.42,7.21h-1.9L540.31,187.08z"/>
			<path d="M548.3,195.39c0-4.86,3.37-8.42,7.94-8.42c2.67,0,4.54,1.08,5.35,3.08l0.59-2.97h1.9l-2.81,14.2h-1.82l0.45-2.24
				c-1.34,1.48-3.21,2.38-5.48,2.38C550.81,201.41,548.3,199.15,548.3,195.39z M560.92,193.07c0-2.78-1.68-4.43-4.62-4.43
				c-3.5,0-6.1,2.81-6.1,6.67c0,2.78,1.68,4.4,4.62,4.4C558.32,199.71,560.92,196.93,560.92,193.07z"/>
			<path d="M579.47,193.21l-1.6,8.07h-1.9l1.6-8.1c0.56-2.81-0.59-4.48-3.5-4.48c-2.99,0-5.05,1.65-5.72,4.97l-1.5,7.61h-1.9
				l2.78-14.2h1.82l-0.43,2.27c1.34-1.65,3.26-2.38,5.48-2.38C578.34,186.97,580.24,189.35,579.47,193.21z"/>
			<path d="M581.55,199.69l0.91-1.51c1.07,0.95,2.94,1.57,4.87,1.57c2.7,0,4.17-0.94,4.17-2.54c0-3.21-7.97-1-7.97-5.8
				c0-2.7,2.41-4.43,6.1-4.43c1.79,0,3.69,0.51,4.76,1.32l-0.8,1.54c-1.1-0.84-2.67-1.21-4.12-1.21c-2.59,0-4.06,1.05-4.06,2.59
				c0,3.29,7.97,1.05,7.97,5.78c0,2.81-2.49,4.43-6.23,4.43C584.84,201.41,582.65,200.68,581.55,199.69z"/>
			<path d="M598.93,188.7h-2.51l0.29-1.62h2.54l0.35-1.78c0.54-2.67,2.17-4.18,4.81-4.18c1.12,0,2.19,0.32,2.83,0.92l-0.83,1.4
				c-0.51-0.46-1.2-0.7-2-0.7c-1.66,0-2.59,0.86-2.99,2.78l-0.32,1.57h4.3l-0.32,1.62h-4.25l-2.49,12.58h-1.9L598.93,188.7z"/>
			<path d="M605.88,195.39c0-4.83,3.39-8.42,8.13-8.42c3.9,0,6.39,2.32,6.39,5.99c0,4.86-3.39,8.45-8.13,8.45
				C608.36,201.41,605.88,199.04,605.88,195.39z M618.49,193.07c0-2.78-1.68-4.43-4.62-4.43c-3.5,0-6.1,2.81-6.1,6.67
				c0,2.78,1.68,4.4,4.62,4.4C615.9,199.71,618.49,196.93,618.49,193.07z"/>
			<path d="M625.01,187.08h1.82l-0.48,2.59c1.26-1.86,3.1-2.7,5.77-2.7l-0.35,1.86c-0.19,0-0.32-0.03-0.54-0.03
				c-2.99,0-5,1.73-5.69,5.26l-1.42,7.21h-1.9L625.01,187.08z"/>
			<path d="M654.33,193.21l-1.33,8.07h-1.57l1.33-8.1c0.46-2.81-0.44-4.48-2.77-4.48c-2.33,0-3.99,1.57-4.52,4.75l-1.28,7.83h-1.57
				l1.33-8.1c0.44-2.81-0.44-4.48-2.77-4.48c-2.37,0-4.01,1.67-4.56,4.97l-1.24,7.61h-1.57l2.3-14.2h1.51l-0.35,2.24
				c1.08-1.62,2.61-2.35,4.38-2.35c1.97,0,3.3,1.03,3.81,2.83c1.17-1.89,2.88-2.83,4.92-2.83
				C653.49,186.97,654.97,189.35,654.33,193.21z"/>
			<path d="M658.07,195.39c0-4.86,2.79-8.42,6.58-8.42c2.21,0,3.76,1.08,4.43,3.08l0.49-2.97h1.57l-2.33,14.2h-1.51l0.38-2.24
				c-1.11,1.48-2.66,2.38-4.54,2.38C660.15,201.41,658.07,199.15,658.07,195.39z M668.52,193.07c0-2.78-1.39-4.43-3.83-4.43
				c-2.9,0-5.05,2.81-5.05,6.67c0,2.78,1.39,4.4,3.83,4.4C666.37,199.71,668.52,196.93,668.52,193.07z"/>
			<path d="M676.8,197.07l1.35-8.37h-2.06l0.24-1.62h2.08l0.51-3.1h1.57l-0.51,3.1h3.54l-0.27,1.62h-3.54l-1.35,8.29
				c-0.29,1.78,0.2,2.78,1.59,2.78c0.64,0,1.26-0.24,1.79-0.73l0.38,1.46c-0.73,0.67-1.7,0.92-2.59,0.92
				C677.51,201.41,676.36,199.77,676.8,197.07z"/>
			<path d="M688.05,187.08h1.57l-2.3,14.2h-1.57L688.05,187.08z M688.42,182.71c0-0.81,0.51-1.46,1.22-1.46
				c0.64,0,1.08,0.57,1.08,1.21c0,0.86-0.51,1.51-1.22,1.51C688.87,183.98,688.42,183.38,688.42,182.71z"/>
			<path d="M694.25,195.39c0-4.83,2.81-8.42,6.73-8.42c3.23,0,5.29,2.32,5.29,5.99c0,4.86-2.81,8.45-6.73,8.45
				C696.31,201.41,694.25,199.04,694.25,195.39z M704.7,193.07c0-2.78-1.39-4.43-3.83-4.43c-2.9,0-5.05,2.81-5.05,6.67
				c0,2.78,1.39,4.4,3.83,4.4C702.55,199.71,704.7,196.93,704.7,193.07z"/>
			<path d="M722.03,193.21l-1.33,8.07h-1.57l1.33-8.1c0.46-2.81-0.49-4.48-2.9-4.48c-2.48,0-4.18,1.65-4.74,4.97l-1.24,7.61h-1.57
				l2.3-14.2h1.51l-0.35,2.27c1.11-1.65,2.7-2.38,4.54-2.38C721.1,186.97,722.68,189.35,722.03,193.21z"/>
			<path d="M747.25,193.21l-1.33,8.07h-1.57l1.33-8.1c0.46-2.81-0.49-4.48-2.9-4.48c-2.48,0-4.18,1.65-4.74,4.97l-1.24,7.61h-1.57
				l2.3-14.2h1.51l-0.35,2.27c1.11-1.65,2.7-2.38,4.54-2.38C746.32,186.97,747.89,189.35,747.25,193.21z"/>
			<path d="M751.97,195.18l1.33-8.1h1.57l-1.33,8.1c-0.44,2.81,0.49,4.51,2.86,4.51c2.46,0,4.16-1.67,4.72-4.97l1.24-7.64h1.57
				l-2.33,14.2h-1.51l0.38-2.27c-1.13,1.65-2.7,2.4-4.5,2.4C752.92,201.41,751.35,199.04,751.97,195.18z"/>
			<path d="M787.41,193.21l-1.33,8.07h-1.57l1.33-8.1c0.46-2.81-0.44-4.48-2.77-4.48c-2.33,0-3.99,1.57-4.52,4.75l-1.28,7.83h-1.57
				l1.33-8.1c0.44-2.81-0.44-4.48-2.77-4.48c-2.37,0-4.01,1.67-4.56,4.97l-1.24,7.61h-1.57l2.3-14.2h1.51l-0.35,2.24
				c1.08-1.62,2.61-2.35,4.38-2.35c1.97,0,3.3,1.03,3.81,2.83c1.17-1.89,2.88-2.83,4.92-2.83
				C786.57,186.97,788.05,189.35,787.41,193.21z"/>
			<path d="M792.48,195.37c0-4.83,2.72-8.4,6.44-8.4c3.08,0,5.07,2.24,5.07,6.02c0,0.59-0.07,1.19-0.16,1.73h-9.81
				c0,0.19,0,0.38,0,0.57c0,2.83,1.33,4.43,4.01,4.43c1.55,0,2.94-0.67,3.81-1.78l0.71,1.38c-1.08,1.32-2.83,2.11-4.65,2.11
				C794.54,201.41,792.48,199.09,792.48,195.37z M802.51,193.29c0.2-3.02-1.35-4.7-3.63-4.7c-2.35,0-4.12,1.86-4.67,4.7H802.51z
				 M801.49,181.57h2.17l-3.88,3.35h-1.64L801.49,181.57z"/>
			<path d="M810.04,187.08h1.51l-0.4,2.59c1.04-1.86,2.57-2.7,4.78-2.7l-0.29,1.86c-0.15,0-0.27-0.03-0.44-0.03
				c-2.48,0-4.14,1.73-4.72,5.26l-1.17,7.21h-1.57L810.04,187.08z"/>
			<path d="M820.95,187.08h1.57l-2.3,14.2h-1.57L820.95,187.08z M821.33,182.71c0-0.81,0.51-1.46,1.22-1.46
				c0.64,0,1.08,0.57,1.08,1.21c0,0.86-0.51,1.51-1.22,1.51C821.77,183.98,821.33,183.38,821.33,182.71z"/>
			<path d="M826.27,195.39c0-4.86,2.79-8.42,6.58-8.42c2.26,0,3.83,1.13,4.47,3.21l0.51-3.1h1.51l-3.19,19.43h-1.57l1.22-7.37
				c-1.08,1.43-2.61,2.27-4.45,2.27C828.35,201.41,826.27,199.15,826.27,195.39z M836.72,193.07c0-2.78-1.39-4.43-3.83-4.43
				c-2.9,0-5.05,2.81-5.05,6.67c0,2.78,1.39,4.4,3.83,4.4C834.57,199.71,836.72,196.93,836.72,193.07z"/>
			<path d="M844.02,195.18l1.33-8.1h1.57l-1.33,8.1c-0.44,2.81,0.49,4.51,2.86,4.51c2.46,0,4.16-1.67,4.72-4.97l1.24-7.64h1.57
				l-2.33,14.2h-1.51l0.38-2.27c-1.13,1.65-2.7,2.4-4.5,2.4C844.97,201.41,843.4,199.04,844.02,195.18z"/>
			<path d="M860.16,195.37c0-4.83,2.72-8.4,6.44-8.4c3.08,0,5.07,2.24,5.07,6.02c0,0.59-0.07,1.19-0.16,1.73h-9.81
				c0,0.19,0,0.38,0,0.57c0,2.83,1.33,4.43,4.01,4.43c1.55,0,2.94-0.67,3.81-1.78l0.71,1.38c-1.08,1.32-2.83,2.11-4.65,2.11
				C862.22,201.41,860.16,199.09,860.16,195.37z M870.19,193.29c0.2-3.02-1.35-4.7-3.63-4.7c-2.35,0-4.12,1.86-4.67,4.7H870.19z"/>
			<path class="st0" d="M873.71,200.01c0-0.89,0.58-1.54,1.24-1.54c0.64,0,1.13,0.59,1.13,1.4c0,0.89-0.58,1.54-1.22,1.54
				C874.22,201.41,873.71,200.79,873.71,200.01z"/>
		</g>
	</g>
	<rect class="st3" width="897.33" height="229"/>
</g>
</svg>
